<svg width="2278" height="660" viewBox="0 0 2278 660" fill="none" xmlns="http://www.w3.org/2000/svg">
<path fill-rule="evenodd" clip-rule="evenodd" d="M40.3231 86.3212C39.0474 87.5959 38 107.006 38 129.46V170.278H1063.07C1644.73 170.278 2088.14 172.382 2088.14 175.149C2088.14 177.826 2004.2 247.333 1901.6 329.615L1715.07 479.21L1714.97 527.916L1714.88 576.621H1923.8H2132.71V532.185V487.744L1988.43 486.263L1844.15 484.777L2041.58 326.754L2239 168.731L2237.39 126.365L2235.77 84H1139.21C536.101 84 41.5989 85.0465 40.3231 86.3212ZM38 387.961V577L97.8887 575.419L157.777 573.838L155.777 463.536C154.674 402.874 155.499 337.118 157.61 317.419L161.449 281.605H359.02H556.597L554.959 241.839L553.321 202.073L295.66 200.498L38 198.923V387.961ZM710.703 202.274L606.246 203.921L606.385 210.757C606.463 214.514 605.472 298.371 604.185 397.107L601.834 576.621H659.75H717.667L718.363 532.091C718.747 507.599 719.371 484.432 719.756 480.602L720.452 473.644L815.16 472.291L909.867 470.939L942.787 521.509C960.887 549.324 978.586 573.187 982.107 574.54C985.628 575.887 1017.93 576.282 1053.89 575.414L1119.27 573.838L1083.29 521.142L1047.32 468.445L1073.86 450.583C1106.5 428.624 1119.56 402.835 1123.1 353.389C1128.19 282.412 1106.41 236.445 1056.96 213.757L1038 205.057L926.581 202.836C865.299 201.622 768.157 201.366 710.703 202.274ZM1371.61 206.749C1373.43 211.503 1372.61 213.963 1369.8 212.226C1366.98 210.484 1362.86 212.004 1360.64 215.594L1356.59 222.129L1370 218.544C1377.37 216.574 1388.1 214.926 1393.83 214.887L1404.27 214.809L1397.33 206.46C1387.84 195.032 1367.19 195.266 1371.61 206.749ZM1451.19 212.95L1468.83 228.892L1454.26 235.766C1446.24 239.546 1436.87 242.641 1433.43 242.641C1423.87 242.641 1402.05 295.087 1406.52 307.294L1410.36 317.786L1399.23 308.045C1393.11 302.685 1383.22 298.304 1377.24 298.304C1361.33 298.304 1341.62 313.968 1341.62 326.626C1341.62 339.751 1356.51 346.882 1365.39 338.009C1375.57 327.839 1380.62 330.667 1380.62 346.548C1380.62 354.708 1382.27 359.74 1384.29 357.725C1389.92 352.092 1402.9 365.228 1402.9 376.567C1402.9 387.522 1422.27 389.704 1434.89 380.174C1445.83 371.914 1493.46 381.349 1501.95 393.461C1506.04 399.294 1512.83 404.065 1517.05 404.065C1521.26 404.065 1529.75 411.134 1535.9 419.773C1542.06 428.406 1557.27 440.062 1569.71 445.662C1582.14 451.267 1592.32 457.641 1592.32 459.823C1592.32 462.005 1587.31 470.16 1581.18 477.947C1575.05 485.729 1570.04 494.29 1570.04 496.962C1570.04 504.404 1506.58 565.489 1498.84 565.489C1495.1 565.489 1492.04 567.994 1492.04 571.055C1492.04 574.35 1511.92 576.571 1540.79 576.499L1589.53 576.377L1611.82 566.235C1624.07 560.657 1643.51 545.678 1654.99 532.942L1675.89 509.792L1675.09 477.802L1674.3 445.812L1670.92 465.556C1669.06 476.416 1661.89 492.698 1655 501.737L1642.47 518.175L1646.64 493.126C1648.94 479.35 1650.82 454.301 1650.82 437.463V406.848H1629.48C1600.85 406.848 1590.66 393.105 1593.79 358.738C1595.17 343.536 1601.16 326.531 1608.32 317.43C1616.66 306.832 1618.69 300.163 1614.77 296.239C1605.86 287.344 1607.8 264.906 1617.46 264.906H1625.9L1617.39 244.567C1608.61 223.565 1609.43 216.524 1619.9 222.986C1623.21 225.034 1624.25 229.432 1622.19 232.755C1620.05 236.217 1621.03 237.202 1624.49 235.065C1632.21 230.295 1667.4 300.637 1661.81 309.665C1659.58 313.289 1660.01 317.848 1662.79 319.801C1665.57 321.755 1670.96 329.615 1674.78 337.269L1681.71 351.185L1678.88 312.226L1676.05 273.267L1660.59 251.302C1651.76 238.733 1633.38 223.287 1617.66 215.199L1590.17 201.066L1511.86 199.034L1433.54 197.002L1451.19 212.95ZM1232.99 220.375C1214.45 232.644 1205.26 234.742 1211.05 225.385L1214.83 219.262L1203.41 225.374C1185.61 234.892 1169.97 260.548 1165.51 287.567C1159.81 322.017 1159.9 370.439 1165.67 389.587L1170.55 405.724L1164.16 401.783C1160.65 399.617 1157.78 400.497 1157.78 403.736C1157.78 411.418 1178.25 431.858 1182.09 428.011C1183.72 426.386 1196.4 430.544 1210.26 437.246C1224.12 443.953 1238.05 447.85 1241.19 445.907C1244.34 443.964 1246.92 445.028 1246.92 448.267C1246.92 451.507 1242.85 454.162 1237.88 454.162H1228.84L1235.77 462.511C1240.15 467.777 1240.52 470.861 1236.78 470.861C1233.53 470.861 1229.28 468.317 1227.36 465.206C1225.43 462.094 1221.15 461.22 1217.83 463.268C1214.51 465.317 1209.04 463.369 1205.68 458.932C1193.13 442.4 1157.08 422.823 1166.14 437.463C1168.03 440.524 1167.55 443.035 1165.07 443.035C1162.59 443.04 1159.88 453.06 1159.04 465.3C1157.29 490.788 1158.97 491.935 1174.88 476.043L1186.41 464.521L1199.53 473.115C1208.05 478.693 1213.36 479.595 1214.66 475.698C1215.76 472.392 1224.94 482.979 1235.04 499.227C1252.49 527.265 1254.11 536.722 1246.35 565.355C1244.96 570.498 1248.82 574.289 1256.66 575.486C1263.56 576.538 1269.2 574.885 1269.2 571.818C1269.2 568.751 1274.21 564.648 1280.34 562.706C1286.47 560.763 1291.48 555.436 1291.48 550.872C1291.48 546.302 1293.99 544.114 1297.05 546.007C1306.54 551.868 1303.27 559.221 1287.31 567.871L1271.98 576.176L1356.29 576.399L1440.6 576.621L1443.96 564.097C1450.42 540.012 1447.69 505.801 1438.71 498.353C1427.09 488.723 1408.48 451.785 1408.48 438.365C1408.48 432.498 1412.24 424.577 1416.83 420.764C1429.52 410.243 1427.42 392.932 1413.46 392.932C1407 392.932 1394.28 386.67 1385.17 379.016C1376.07 371.363 1361.92 363.492 1353.73 361.532C1331.41 356.194 1307.45 342.974 1310.67 337.775C1312.23 335.254 1308.12 328.474 1301.54 322.707C1294.95 316.94 1291.4 315.354 1293.64 319.178C1295.88 323.008 1295.51 326.136 1292.8 326.136C1283.34 326.136 1262.26 270.35 1265.54 253.974C1268.37 239.796 1259.47 209.337 1252.49 209.321C1250.95 209.321 1242.18 214.291 1232.99 220.375ZM1634.02 281.744C1631.75 285.413 1633.34 290.561 1637.57 293.183C1646.83 298.933 1651.82 288.736 1643.71 280.631C1640 276.924 1636.77 277.297 1634.02 281.744ZM721.221 291.491C719.75 293.868 719.973 316.579 721.717 341.961L724.881 388.101L852.692 386.342L980.508 384.583L991.149 371.44C1003.41 356.294 1005.04 322.529 994.196 308.262C990.213 303.025 980.101 296.139 971.723 292.955C954.079 286.253 725.288 284.917 721.221 291.491ZM1392.22 328.134C1393.51 329.236 1402.07 331.819 1411.26 333.873L1427.97 337.608L1419.62 331.958C1412.1 326.871 1386.64 323.319 1392.22 328.134ZM1440.51 346.52C1444.34 348.067 1450.61 348.067 1454.44 346.52C1458.27 344.978 1455.13 343.714 1447.47 343.714C1439.81 343.714 1436.68 344.978 1440.51 346.52ZM1260.84 460.814C1266.97 464.287 1273.83 469.848 1276.08 473.171C1278.9 477.329 1280.2 477.106 1280.26 472.447C1280.3 468.729 1275.49 463.096 1269.57 459.923C1254.9 452.086 1246.88 452.904 1260.84 460.814ZM2171.71 493.494C2171.71 496.756 2174.41 504.482 2177.73 510.666C2186.06 526.224 2179.64 530.382 2166.14 518.175C2159.97 512.597 2154.31 509.068 2153.57 510.321C2152.82 511.579 2149.54 517.618 2146.28 523.741L2140.35 534.874L2146.74 547.298L2153.14 559.722L2163.81 551.651C2179.6 539.711 2184.67 541.531 2174.81 555.597C2164.32 570.554 2163.82 576.627 2173.1 576.605C2176.93 576.599 2185.02 569.196 2191.08 560.167C2198.5 549.101 2207.59 543.201 2218.93 542.088C2239.12 540.112 2239.19 530.037 2219.03 527.526C2210.02 526.407 2200.15 518.693 2192.39 506.719C2180.05 487.682 2171.71 482.344 2171.71 493.494ZM1186.78 538.292C1187.91 541.704 1200.03 550.905 1213.7 558.737L1238.56 572.976L1219.36 552.536C1201.15 533.143 1182.31 524.91 1186.78 538.292Z" fill="url(#paint0_linear_53_9)"/>
<defs>
<linearGradient id="paint0_linear_53_9" x1="39.1039" y1="330.203" x2="1054.08" y2="330.203" gradientUnits="userSpaceOnUse">
<stop stop-color="#1E40AF"/>
<stop offset="1" stop-color="#3B82F6"/>
</linearGradient>
</defs>
</svg>
